<svg xmlns="http://www.w3.org/2000/svg"  viewBox="0 0 100 100" width="100px" height="100px"><polygon fill="#fff" points="86,53 77,44 68,35 59,26 50,17 41,26 32,35 23,44 14,53 5,62 14,71 23,62 32,71 41,62 50,71 59,62 68,71 77,62 86,71 95,62"/><rect width="12.374" height="12.374" x="43.813" y="19.563" fill="#39c1d7" transform="rotate(-45.001 50 25.75)"/><rect width="12.252" height="12.374" x="26.167" y="37.269" fill="#f9b621" transform="rotate(-45.001 32.293 43.457)"/><rect width="13.081" height="12.728" x="7.584" y="55.511" fill="#39c1d7" transform="rotate(-45.001 14.124 61.875)"/><rect width="12.374" height="12.728" x="61.688" y="37.261" fill="#f9b621" transform="rotate(-45.001 67.875 43.626)"/><rect width="12.728" height="12.728" x="43.636" y="37.136" fill="#f9b621" transform="rotate(-45.001 50 43.5)"/><rect width="13.081" height="13.081" x="25.459" y="55.209" fill="#39c1d7" transform="rotate(-45.001 32 61.75)"/><rect width="12.61" height="13.081" x="43.528" y="55.376" fill="#39c1d7" transform="rotate(-45.001 49.833 61.918)"/><rect width="13.081" height="13.081" x="61.459" y="55.209" fill="#39c1d7" transform="rotate(-45.001 68 61.751)"/><rect width="12.728" height="12.608" x="79.678" y="55.738" fill="#39c1d7" transform="rotate(-45.001 86.042 62.044)"/><g><path fill="#1f212b" d="M25.713,46.713c-0.128,0-0.256-0.049-0.354-0.146l-2.463-2.463c-0.195-0.195-0.195-0.512,0-0.707 s0.512-0.195,0.707,0l2.463,2.463c0.195,0.195,0.195,0.512,0,0.707C25.969,46.664,25.841,46.713,25.713,46.713z"/><path fill="#1f212b" d="M41,62c-0.128,0-0.256-0.049-0.354-0.146l-13.25-13.25c-0.195-0.195-0.195-0.512,0-0.707 s0.512-0.195,0.707,0L41,60.793l26.396-26.396c0.195-0.195,0.512-0.195,0.707,0s0.195,0.512,0,0.707l-26.75,26.75 C41.256,61.951,41.128,62,41,62z"/><path fill="#1f212b" d="M50,53c-0.128,0-0.256-0.049-0.354-0.146l-17.75-17.75c-0.195-0.195-0.195-0.512,0-0.707 s0.512-0.195,0.707,0l17.75,17.75c0.195,0.195,0.195,0.512,0,0.707C50.256,52.951,50.128,53,50,53z"/><path fill="#1f212b" d="M59,62c-0.128,0-0.256-0.049-0.354-0.146l-7.035-7.035c-0.195-0.195-0.195-0.512,0-0.707 s0.512-0.195,0.707,0L59,60.793l17.396-17.396c0.195-0.195,0.512-0.195,0.707,0s0.195,0.512,0,0.707l-17.75,17.75 C59.256,61.951,59.128,62,59,62z"/><path fill="#1f212b" d="M77,62c-0.128,0-0.256-0.049-0.354-0.146l-35.75-35.75c-0.195-0.195-0.195-0.512,0-0.707 s0.512-0.195,0.707,0L77,60.793l4.927-4.927c0.195-0.195,0.512-0.195,0.707,0s0.195,0.512,0,0.707l-5.28,5.28 C77.256,61.951,77.128,62,77,62z"/><path fill="#1f212b" d="M84.035,54.965c-0.128,0-0.256-0.049-0.354-0.146c-0.195-0.195-0.195-0.512,0-0.707l1.715-1.715 c0.195-0.195,0.512-0.195,0.707,0s0.195,0.512,0,0.707l-1.715,1.715C84.291,54.916,84.163,54.965,84.035,54.965z"/><path fill="#1f212b" d="M23,62c-0.128,0-0.256-0.049-0.354-0.146l-8.75-8.75c-0.195-0.195-0.195-0.512,0-0.707 s0.512-0.195,0.707,0L23,60.793l35.396-35.396c0.195-0.195,0.512-0.195,0.707,0s0.195,0.512,0,0.707l-35.75,35.75 C23.256,61.951,23.128,62,23,62z"/></g><path fill="#1f212b" d="M86,72c-0.256,0-0.512-0.098-0.707-0.293L77,63.414l-8.293,8.293c-0.391,0.391-1.023,0.391-1.414,0	L59,63.414l-8.293,8.293c-0.391,0.391-1.023,0.391-1.414,0L41,63.414l-8.293,8.293c-0.391,0.391-1.023,0.391-1.414,0L23,63.414	l-8.293,8.293c-0.391,0.391-1.023,0.391-1.414,0l-9-9c-0.391-0.391-0.391-1.023,0-1.414l45-45c0.391-0.391,1.023-0.391,1.414,0	l45,45c0.391,0.391,0.391,1.023,0,1.414l-9,9C86.512,71.902,86.256,72,86,72z M77,61c0.256,0,0.512,0.098,0.707,0.293L86,69.586	L93.586,62L50,18.414L6.414,62L14,69.586l8.293-8.293c0.391-0.391,1.023-0.391,1.414,0L32,69.586l8.293-8.293	c0.391-0.391,1.023-0.391,1.414,0L50,69.586l8.293-8.293c0.391-0.391,1.023-0.391,1.414,0L68,69.586l8.293-8.293	C76.488,61.098,76.744,61,77,61z"/></svg>